<svg width="48" height="48" viewBox="0 0 48 48" fill="none" xmlns="http://www.w3.org/2000/svg">
<g clip-path="url(#clip0_827_246)">
<path d="M36 43.5H12C10.0109 43.5 8.10322 42.7098 6.6967 41.3033C5.29018 39.8968 4.5 37.9891 4.5 36V15C4.5 13.0109 5.29018 11.1032 6.6967 9.6967C8.10322 8.29018 10.0109 7.5 12 7.5H36C37.9891 7.5 39.8968 8.29018 41.3033 9.6967C42.7098 11.1032 43.5 13.0109 43.5 15V36C43.5 37.9891 42.7098 39.8968 41.3033 41.3033C39.8968 42.7098 37.9891 43.5 36 43.5ZM12 10.5C10.8065 10.5 9.66193 10.9741 8.81802 11.818C7.97411 12.6619 7.5 13.8065 7.5 15V36C7.5 37.1935 7.97411 38.3381 8.81802 39.182C9.66193 40.0259 10.8065 40.5 12 40.5H36C37.1935 40.5 38.3381 40.0259 39.182 39.182C40.0259 38.3381 40.5 37.1935 40.5 36V15C40.5 13.8065 40.0259 12.6619 39.182 11.818C38.3381 10.9741 37.1935 10.5 36 10.5H12Z" fill="white"/>
<path d="M36 37.5H30C29.6022 37.5 29.2206 37.342 28.9393 37.0607C28.658 36.7794 28.5 36.3978 28.5 36V30C28.5 29.6022 28.658 29.2206 28.9393 28.9393C29.2206 28.658 29.6022 28.5 30 28.5H36C36.3978 28.5 36.7794 28.658 37.0607 28.9393C37.342 29.2206 37.5 29.6022 37.5 30V36C37.5 36.3978 37.342 36.7794 37.0607 37.0607C36.7794 37.342 36.3978 37.5 36 37.5ZM31.5 34.5H34.5V31.5H31.5V34.5Z" fill="white"/>
<path d="M42 19.5H6C5.60218 19.5 5.22064 19.342 4.93934 19.0607C4.65804 18.7794 4.5 18.3978 4.5 18C4.5 17.6022 4.65804 17.2206 4.93934 16.9393C5.22064 16.658 5.60218 16.5 6 16.5H42C42.3978 16.5 42.7794 16.658 43.0607 16.9393C43.342 17.2206 43.5 17.6022 43.5 18C43.5 18.3978 43.342 18.7794 43.0607 19.0607C42.7794 19.342 42.3978 19.5 42 19.5Z" fill="white"/>
<path d="M16.5 13.5C16.1022 13.5 15.7206 13.342 15.4393 13.0607C15.158 12.7794 15 12.3978 15 12V6C15 5.60218 15.158 5.22064 15.4393 4.93934C15.7206 4.65804 16.1022 4.5 16.5 4.5C16.8978 4.5 17.2794 4.65804 17.5607 4.93934C17.842 5.22064 18 5.60218 18 6V12C18 12.3978 17.842 12.7794 17.5607 13.0607C17.2794 13.342 16.8978 13.5 16.5 13.5Z" fill="white"/>
<path d="M31.5 13.5C31.1022 13.5 30.7206 13.342 30.4393 13.0607C30.158 12.7794 30 12.3978 30 12V6C30 5.60218 30.158 5.22064 30.4393 4.93934C30.7206 4.65804 31.1022 4.5 31.5 4.5C31.8978 4.5 32.2794 4.65804 32.5607 4.93934C32.842 5.22064 33 5.60218 33 6V12C33 12.3978 32.842 12.7794 32.5607 13.0607C32.2794 13.342 31.8978 13.5 31.5 13.5Z" fill="white"/>
</g>
<defs>
<clipPath id="clip0_827_246">
<rect width="48" height="48" fill="white"/>
</clipPath>
</defs>
</svg>
